<svg width="432" height="480" viewBox="0 0 432 480" fill="none" xmlns="http://www.w3.org/2000/svg">
<path d="M304 88C304 70.5953 298.839 53.5814 289.169 39.1099C279.5 24.6383 265.756 13.3592 249.676 6.69864C233.596 0.0381293 215.902 -1.70456 198.832 1.69093C181.762 5.08643 166.082 13.4676 153.775 25.7746C141.468 38.0817 133.086 53.7618 129.691 70.8321C126.295 87.9024 128.038 105.596 134.699 121.676C141.359 137.756 152.638 151.5 167.11 161.169C181.581 170.839 198.595 176 216 176C239.331 175.973 261.698 166.692 278.195 150.195C294.692 133.698 303.973 111.331 304 88ZM216 160C201.76 160 187.839 155.777 175.999 147.866C164.159 139.954 154.93 128.71 149.481 115.553C144.031 102.397 142.605 87.9202 145.383 73.9535C148.162 59.9869 155.019 47.1577 165.088 37.0883C175.158 27.019 187.987 20.1616 201.954 17.3835C215.92 14.6054 230.397 16.0312 243.553 21.4807C256.71 26.9302 267.954 36.1586 275.866 47.999C283.777 59.8393 288 73.7598 288 88C287.979 107.089 280.386 125.39 266.888 138.888C253.39 152.386 235.089 159.979 216 160Z" fill="#08D665"/>
<path d="M240 68H256C255.427 60.0598 251.745 52.666 245.754 47.4237C239.763 42.1814 231.946 39.5138 224 40V24H208V40C200.054 39.5138 192.237 42.1814 186.246 47.4237C180.255 52.666 176.573 60.0598 176 68C176.573 75.9403 180.255 83.3341 186.246 88.5764C192.237 93.8186 200.054 96.4862 208 96V120C199.328 120 192 114.504 192 108H176C176.573 115.94 180.255 123.334 186.246 128.576C192.237 133.819 200.054 136.486 208 136V152H224V136C231.946 136.486 239.763 133.819 245.754 128.576C251.745 123.334 255.427 115.94 256 108C255.427 100.06 251.745 92.666 245.754 87.4237C239.763 82.1814 231.946 79.5138 224 80V56C232.672 56 240 61.496 240 68ZM240 108C240 114.504 232.672 120 224 120V96C232.672 96 240 101.496 240 108ZM208 80C199.328 80 192 74.504 192 68C192 61.496 199.328 56 208 56V80ZM208 192H224V336H208V192ZM272 284.456V176H256V288C256.001 289.117 256.235 290.222 256.688 291.243C257.142 292.264 257.804 293.178 258.632 293.928L342.632 369.928L353.368 358.072L272 284.456ZM236.8 402.584C240.424 398.562 242.805 393.576 243.654 388.229C244.503 382.881 243.783 377.403 241.582 372.456C239.381 367.51 235.793 363.308 231.252 360.358C226.712 357.409 221.414 355.839 216 355.839C210.586 355.839 205.288 357.409 200.748 360.358C196.207 363.308 192.619 367.51 190.418 372.456C188.217 377.403 187.497 382.881 188.346 388.229C189.195 393.576 191.576 398.562 195.2 402.584C189.503 405.036 184.649 409.102 181.237 414.282C177.825 419.461 176.004 425.526 176 431.728V472C176 474.122 176.843 476.157 178.343 477.657C179.843 479.157 181.878 480 184 480H248C250.122 480 252.157 479.157 253.657 477.657C255.157 476.157 256 474.122 256 472V431.728C255.994 425.526 254.172 419.462 250.761 414.283C247.349 409.104 242.496 405.038 236.8 402.584ZM216 372C218.373 372 220.693 372.704 222.667 374.022C224.64 375.341 226.178 377.215 227.087 379.408C227.995 381.601 228.232 384.013 227.769 386.341C227.306 388.669 226.164 390.807 224.485 392.485C222.807 394.164 220.669 395.306 218.341 395.769C216.013 396.232 213.601 395.995 211.408 395.087C209.215 394.178 207.341 392.64 206.022 390.667C204.704 388.693 204 386.373 204 384C204 380.817 205.264 377.765 207.515 375.515C209.765 373.264 212.817 372 216 372ZM240 464H192V431.728C192.004 427.559 193.662 423.563 196.608 420.614C199.555 417.666 203.551 416.006 207.72 416H224.28C228.449 416.006 232.445 417.666 235.392 420.614C238.338 423.563 239.996 427.559 240 431.728V464ZM60.8 402.584C64.4245 398.562 66.8052 393.576 67.6539 388.229C68.5025 382.881 67.7828 377.403 65.5817 372.456C63.3807 367.51 59.7927 363.308 55.2524 360.358C50.7121 357.409 45.4141 355.839 40 355.839C34.5859 355.839 29.2879 357.409 24.7476 360.358C20.2073 363.308 16.6193 367.51 14.4183 372.456C12.2172 377.403 11.4975 382.881 12.3461 388.229C13.1948 393.576 15.5755 398.562 19.2 402.584C13.5031 405.036 8.64888 409.102 5.23683 414.282C1.82477 419.461 0.00423508 425.526 0 431.728V472C0 474.122 0.842856 476.157 2.34315 477.657C3.84344 479.157 5.87827 480 8 480H72C74.1217 480 76.1566 479.157 77.6569 477.657C79.1571 476.157 80 474.122 80 472V431.728C79.9937 425.526 78.1723 419.462 74.7605 414.283C71.3487 409.104 66.4957 405.038 60.8 402.584ZM40 372C42.3734 372 44.6935 372.704 46.6668 374.022C48.6402 375.341 50.1783 377.215 51.0866 379.408C51.9948 381.601 52.2324 384.013 51.7694 386.341C51.3064 388.669 50.1635 390.807 48.4853 392.485C46.8071 394.164 44.6689 395.306 42.3411 395.769C40.0133 396.232 37.6005 395.995 35.4078 395.087C33.2151 394.178 31.3409 392.64 30.0224 390.667C28.7038 388.693 28 386.373 28 384C28 380.817 29.2643 377.765 31.5147 375.515C33.7652 373.264 36.8174 372 40 372ZM64 464H16V431.728C16.0042 427.559 17.6615 423.563 20.6085 420.614C23.5554 417.666 27.5514 416.006 31.72 416H48.28C52.4486 416.006 56.4446 417.666 59.3915 420.614C62.3385 423.563 63.9958 427.559 64 431.728V464ZM412.8 402.584C416.424 398.562 418.805 393.576 419.654 388.229C420.503 382.881 419.783 377.403 417.582 372.456C415.381 367.51 411.793 363.308 407.252 360.358C402.712 357.409 397.414 355.839 392 355.839C386.586 355.839 381.288 357.409 376.748 360.358C372.207 363.308 368.619 367.51 366.418 372.456C364.217 377.403 363.497 382.881 364.346 388.229C365.195 393.576 367.576 398.562 371.2 402.584C365.503 405.036 360.649 409.102 357.237 414.282C353.825 419.461 352.004 425.526 352 431.728V472C352 474.122 352.843 476.157 354.343 477.657C355.843 479.157 357.878 480 360 480H424C426.122 480 428.157 479.157 429.657 477.657C431.157 476.157 432 474.122 432 472V431.728C431.994 425.526 430.172 419.462 426.761 414.283C423.349 409.104 418.496 405.038 412.8 402.584ZM392 372C394.373 372 396.693 372.704 398.667 374.022C400.64 375.341 402.178 377.215 403.087 379.408C403.995 381.601 404.232 384.013 403.769 386.341C403.306 388.669 402.164 390.807 400.485 392.485C398.807 394.164 396.669 395.306 394.341 395.769C392.013 396.232 389.601 395.995 387.408 395.087C385.215 394.178 383.341 392.64 382.022 390.667C380.704 388.693 380 386.373 380 384C380 380.817 381.264 377.765 383.515 375.515C385.765 373.264 388.817 372 392 372ZM416 464H368V431.728C368.004 427.559 369.662 423.563 372.608 420.614C375.555 417.666 379.551 416.006 383.72 416H400.28C404.449 416.006 408.445 417.666 411.392 420.614C414.338 423.563 415.996 427.559 416 431.728V464ZM176 176H160V284.456L78.632 358.056L89.368 369.912L173.368 293.912C174.194 293.164 174.855 292.252 175.308 291.234C175.762 290.216 175.997 289.114 176 288V176Z" fill="#08D665"/>
</svg>
