<svg width="504" height="504" viewBox="0 0 504 504" fill="none" xmlns="http://www.w3.org/2000/svg">
<path d="M33.5738 453.647H50.3607V470.334C50.2279 479.192 53.6748 487.729 59.9208 494.011C66.2515 500.443 74.9099 504.047 83.9344 504.008H360.918C379.46 504.008 394.492 488.977 394.492 470.434V369.713C394.492 365.077 390.734 361.319 386.098 361.319C381.463 361.319 377.705 365.077 377.705 369.713V470.434C377.705 479.705 370.189 487.221 360.918 487.221H83.9344C79.3958 487.243 75.0417 485.426 71.8647 482.185C68.7681 479.067 67.0664 474.828 67.1475 470.434V453.647H310.557C329.1 453.647 344.131 438.616 344.131 420.074V388.682C344.131 384.047 340.373 380.289 335.738 380.289C331.102 380.289 327.344 384.047 327.344 388.682V420.074C327.344 429.345 319.828 436.86 310.557 436.86H33.5738C24.3026 436.86 16.7869 429.345 16.7869 420.074V33.9753C16.7869 24.7041 24.3026 17.1884 33.5738 17.1884H310.557C319.828 17.1884 327.344 24.7041 327.344 33.9753V101.123C327.344 105.758 331.102 109.516 335.738 109.516C340.373 109.516 344.131 105.758 344.131 101.123V33.9753C344.131 15.433 329.1 0.401489 310.557 0.401489H33.5738C15.0315 0.401489 0 15.433 0 33.9753V420.074C0 438.616 15.0315 453.647 33.5738 453.647Z" fill="#08D665"/>
<path d="M41.9672 50.7621C37.3316 50.7621 33.5737 54.52 33.5737 59.1556V134.697C33.5737 139.332 37.3316 143.09 41.9672 143.09H75.5409C80.1765 143.09 83.9344 139.332 83.9344 134.697C83.9344 130.061 80.1765 126.303 75.5409 126.303H50.3606V59.1556C50.3606 54.52 46.6027 50.7621 41.9672 50.7621Z" fill="#08D665"/>
<path d="M159.475 96.9261C159.475 71.0407 144.728 50.7621 125.902 50.7621C107.075 50.7621 92.3279 71.0407 92.3279 96.9261C92.3279 122.811 107.075 143.09 125.902 143.09C144.728 143.09 159.475 122.811 159.475 96.9261ZM109.115 96.9261C109.115 79.6188 117.961 67.549 125.902 67.549C133.842 67.549 142.689 79.6188 142.689 96.9261C142.689 114.233 133.842 126.303 125.902 126.303C117.961 126.303 109.115 114.242 109.115 96.9261Z" fill="#08D665"/>
<path d="M209.408 56.5033C208.276 53.0589 205.06 50.7307 201.434 50.7307C197.808 50.7307 194.593 53.0589 193.46 56.5033L168.28 132.044C166.815 136.448 169.198 141.206 173.602 142.67C178.005 144.135 182.763 141.753 184.228 137.349L187.912 126.303H214.973L218.658 137.349C219.605 140.198 222.001 142.325 224.941 142.928C227.882 143.532 230.922 142.521 232.915 140.276C234.908 138.031 235.553 134.893 234.605 132.044L209.408 56.5033ZM193.502 109.516L201.443 85.6957L209.383 109.516H193.502Z" fill="#08D665"/>
<path d="M268.59 134.697V91.5459L294.828 138.776C296.309 141.439 299.117 143.09 302.164 143.09C302.875 143.091 303.583 143.001 304.271 142.821C307.972 141.862 310.557 138.521 310.557 134.697V59.1556C310.557 54.52 306.8 50.7621 302.164 50.7621C297.528 50.7621 293.77 54.52 293.77 59.1556V102.306L267.533 55.0764C265.674 51.7339 261.792 50.0703 258.09 51.0303C254.388 51.9903 251.803 55.3313 251.803 59.1556V134.697C251.803 139.332 255.561 143.09 260.197 143.09C264.832 143.09 268.59 139.332 268.59 134.697Z" fill="#08D665"/>
<path d="M41.9672 201.844H151.082C155.717 201.844 159.475 198.086 159.475 193.451C159.475 188.815 155.717 185.057 151.082 185.057H41.9672C37.3316 185.057 33.5737 188.815 33.5737 193.451C33.5737 198.086 37.3316 201.844 41.9672 201.844Z" fill="#08D665"/>
<path d="M41.9672 243.811H151.082C155.717 243.811 159.475 240.053 159.475 235.418C159.475 230.782 155.717 227.024 151.082 227.024H41.9672C37.3316 227.024 33.5737 230.782 33.5737 235.418C33.5737 240.053 37.3316 243.811 41.9672 243.811Z" fill="#08D665"/>
<path d="M41.9672 285.779H151.082C155.717 285.779 159.475 282.021 159.475 277.385C159.475 272.75 155.717 268.992 151.082 268.992H41.9672C37.3316 268.992 33.5737 272.75 33.5737 277.385C33.5737 282.021 37.3316 285.779 41.9672 285.779Z" fill="#08D665"/>
<path d="M184.656 193.451C184.656 198.086 188.414 201.844 193.049 201.844H271.444C276.08 201.844 279.837 198.086 279.837 193.451C279.837 188.815 276.08 185.057 271.444 185.057H193.049C188.414 185.057 184.656 188.815 184.656 193.451Z" fill="#08D665"/>
<path d="M193.049 243.811H225.616C230.251 243.811 234.009 240.053 234.009 235.418C234.009 230.782 230.251 227.024 225.616 227.024H193.049C188.414 227.024 184.656 230.782 184.656 235.418C184.656 240.053 188.414 243.811 193.049 243.811Z" fill="#08D665"/>
<path d="M193.049 285.779H227.211C231.846 285.779 235.604 282.021 235.604 277.385C235.604 272.75 231.846 268.992 227.211 268.992H193.049C188.414 268.992 184.656 272.75 184.656 277.385C184.656 282.021 188.414 285.779 193.049 285.779Z" fill="#08D665"/>
<path d="M41.9672 327.746H151.082C155.717 327.746 159.475 323.988 159.475 319.352C159.475 314.717 155.717 310.959 151.082 310.959H41.9672C37.3316 310.959 33.5737 314.717 33.5737 319.352C33.5737 323.988 37.3316 327.746 41.9672 327.746Z" fill="#08D665"/>
<path d="M250.712 319.352C250.712 314.717 246.954 310.959 242.319 310.959H193.049C188.414 310.959 184.656 314.717 184.656 319.352C184.656 323.988 188.414 327.746 193.049 327.746H242.319C246.954 327.746 250.712 323.988 250.712 319.352Z" fill="#08D665"/>
<path d="M50.3606 394.893H76.6573C84.3026 394.919 91.2976 390.596 94.6948 383.747C95.2689 382.443 96.6431 381.684 98.0521 381.892C99.4601 381.969 100.652 382.957 100.99 384.326L102.475 389.505C104.58 397.096 110.959 402.734 118.75 403.891C119.808 404.058 120.877 404.142 121.948 404.143C128.671 404.154 134.946 400.774 138.634 395.154L148.295 380.666C148.915 379.716 149.973 379.144 151.107 379.144C152.241 379.144 153.299 379.716 153.919 380.666L157.411 385.921C161.151 391.533 167.453 394.901 174.197 394.893H201.443C206.078 394.893 209.836 391.135 209.836 386.5C209.836 381.864 206.078 378.106 201.443 378.106H174.164C173.036 378.108 171.983 377.544 171.36 376.604L167.869 371.392C164.137 365.765 157.834 362.383 151.082 362.383C144.33 362.383 138.027 365.765 134.295 371.392L124.643 385.845C123.922 386.958 122.614 387.543 121.305 387.338C119.995 387.133 118.928 386.177 118.583 384.897L117.105 379.718C114.837 371.71 107.878 365.921 99.5904 365.149C91.3029 364.378 83.3944 368.783 79.6873 376.235C79.1187 377.387 77.9422 378.114 76.6573 378.106H50.3606C45.725 378.106 41.9672 381.864 41.9672 386.5C41.9672 391.135 45.725 394.893 50.3606 394.893Z" fill="#08D665"/>
<path d="M235.016 394.893H281.331H281.466C285.079 394.887 288.556 393.51 291.194 391.041C310.306 373.414 349.537 343.66 397.555 342.678C405.187 342.646 411.458 336.645 411.824 329.022C411.975 325.933 415.845 253.002 437.005 213.343L502.641 90.1274C504.051 87.4796 503.94 84.281 502.352 81.7365C500.764 79.192 497.938 77.6882 494.941 77.7916C491.943 77.8949 489.228 79.5897 487.818 82.2376L426.135 198.067L394.29 181.112L352.071 158.61L429.744 12.7399C431.353 10.0816 431.362 6.75177 429.767 4.08501C428.172 1.41825 425.234 -0.149064 422.131 0.0112162C419.028 0.171496 416.267 2.03314 414.955 4.85004L333.295 158.081C312.144 197.765 253.767 241.612 251.291 243.459C245.185 248.025 243.711 256.567 247.934 262.915C274.801 304.815 270.269 357.366 267.054 378.106H235.016C230.381 378.106 226.623 381.864 226.623 386.5C226.623 391.135 230.381 394.893 235.016 394.893ZM263.109 255.562C273.114 247.899 320.705 210.431 343.879 173.306L392.813 199.326L418.514 213.033C400.594 252.969 396.003 313.393 395.222 325.983C360.922 328.233 328.062 340.613 300.804 361.555L327.949 310.044C344.475 314.159 361.481 305.336 367.633 289.455C373.786 273.574 367.162 255.597 352.176 247.504C337.191 239.412 318.526 243.732 308.62 257.586C298.715 271.44 300.663 290.499 313.168 302.062L286.216 353.111C288.291 319.028 280.252 285.092 263.109 255.562ZM327.848 292.2C321.857 289.007 318.378 282.52 319.034 275.763C319.69 269.006 324.351 263.309 330.844 261.328C332.431 260.849 334.08 260.603 335.738 260.598C342.724 260.603 348.977 264.934 351.437 271.473C353.898 278.011 352.052 285.39 346.802 290C341.552 294.609 333.996 295.485 327.831 292.2H327.848Z" fill="#08D665"/>
</svg>
