<svg width="418" height="351" viewBox="0 0 418 351" fill="none" xmlns="http://www.w3.org/2000/svg">
<path fill-rule="evenodd" clip-rule="evenodd" d="M239.96 88.086C243.205 86.791 244.781 83.101 243.482 79.86L228.309 42.004C226.193 36.728 218.679 36.728 216.564 42.004L201.391 79.86C199.717 84.036 202.877 88.544 207.261 88.544C209.77 88.544 212.147 87.041 213.136 84.567L222.436 61.366L231.734 84.567C233.033 87.808 236.717 89.386 239.96 88.086ZM209.597 119.092H154.07C150.576 119.092 147.744 121.918 147.744 125.42C147.744 128.912 150.576 131.748 154.07 131.748H209.597C213.091 131.748 215.923 128.912 215.923 125.42C215.924 121.917 213.092 119.092 209.597 119.092ZM209.597 164.769H154.07C150.576 164.769 147.744 167.594 147.744 171.097C147.744 174.589 150.576 177.425 154.07 177.425H209.597C213.091 177.425 215.923 174.589 215.923 171.097C215.924 167.594 213.092 164.769 209.597 164.769ZM352.318 191.622C352.318 188.148 347.035 188.147 347.035 191.622C347.034 195.103 352.318 195.102 352.318 191.622ZM364.973 191.622C364.973 200.061 358.111 206.917 349.675 206.917C341.241 206.917 334.379 200.061 334.379 191.622C334.379 183.183 341.241 176.327 349.675 176.327C358.111 176.327 364.973 183.183 364.973 191.622ZM307.692 153.419C311.174 153.419 311.167 148.141 307.692 148.141C304.221 148.141 304.213 153.419 307.692 153.419ZM307.692 166.075C299.258 166.075 292.396 159.219 292.396 150.78C292.396 142.351 299.258 135.485 307.692 135.485C316.128 135.485 322.99 142.352 322.99 150.78C322.99 159.219 316.128 166.075 307.692 166.075ZM404.96 132.617V209.796C404.96 213.277 402.124 216.113 398.64 216.113H255.185C251.699 216.113 248.865 213.277 248.865 209.796V132.617C248.865 129.13 251.699 126.289 255.185 126.289H398.641C402.124 126.288 404.96 129.13 404.96 132.617ZM320.585 228.769V309.355C320.585 325.231 307.669 338.143 291.795 338.143H124.31V306.508L127.8 309.221C133.396 313.566 139.557 315.682 146.642 315.682H173.629C181.578 315.682 203.523 313.15 222.546 310.036C262.779 303.452 269.084 298.355 270.751 294.741C273.733 288.274 272.24 283.716 270.461 281.04C265.101 272.958 251.432 272.724 236.696 273.203C236.65 273.203 236.606 273.203 236.561 273.203L236.678 269.903C236.891 263.932 232.811 258.649 226.978 257.343C222.816 256.404 218.091 256.102 212.784 262.386L201.29 276.002L170.617 272.611C167.119 272.222 165.169 271.492 163.659 269.999C150.666 257.134 138.468 241.94 124.286 231.993V49.286C124.286 29.092 136.058 12.656 150.529 12.656H332.577C325.188 20.93 320.584 32.573 320.584 45.448V113.633H255.184C244.72 113.633 236.208 122.147 236.208 132.617V209.796C236.208 220.256 244.719 228.769 255.184 228.769H320.585ZM121.867 288.569L135.57 299.231C138.904 301.822 142.423 303.027 146.642 303.027H173.629C188.079 303.027 248.168 294.514 259.728 288.148C259.747 288.063 259.762 287.988 259.772 287.929C256.108 285.209 242.257 285.676 237.109 285.85C233.608 285.972 231.08 286.053 229.266 285.834C225.994 285.455 223.564 282.619 223.681 279.33L224.025 269.654L223.467 269.526C222.531 270.26 210.578 284.631 208.784 286.756C207.424 288.366 205.35 289.192 203.253 288.958L169.225 285.194C164.924 284.714 159.391 283.584 154.758 278.994C150.026 274.308 145.791 269.798 141.694 265.437C125.807 248.511 113.256 235.14 88.283 230.582C79.834 229.041 71.229 228.631 62.704 229.377C33.706 231.915 12.656 252.738 12.656 278.898V338.143H111.655V293.564C111.654 288.346 117.748 285.357 121.867 288.569ZM59.93 216.358C74.46 216.358 86.28 204.539 86.28 190.012C86.28 175.485 74.46 163.665 59.93 163.665C45.403 163.665 33.582 175.484 33.582 190.012C33.582 204.539 45.402 216.358 59.93 216.358ZM333.246 45.069H385.722C385.558 27.156 373.85 12.656 359.481 12.656C345.114 12.655 333.413 27.156 333.246 45.069ZM417.614 132.617V209.796C417.614 220.256 409.103 228.769 398.64 228.769H333.238V309.355C333.238 332.21 314.648 350.799 291.795 350.799H6.327C2.833 350.799 0 347.968 0 344.471V278.898C0 253.553 15.589 232.53 38.518 222.585C27.931 215.607 20.927 203.612 20.927 190.012C20.927 168.506 38.424 151.009 59.93 151.009C81.438 151.009 98.935 168.506 98.935 190.012C98.935 200.786 94.541 210.553 87.452 217.616C96.509 219.013 104.32 221.298 111.632 224.675V49.286C111.632 22.113 129.081 0 150.53 0H359.482C380.931 0 398.381 20.386 398.381 45.448V51.398C398.381 54.89 395.549 57.726 392.052 57.726H333.239V113.634H398.641C409.103 113.633 417.614 122.146 417.614 132.617ZM209.597 210.446H154.07C150.576 210.446 147.744 213.272 147.744 216.769C147.744 220.266 150.576 223.102 154.07 223.102H209.597C213.091 223.102 215.923 220.266 215.923 216.769C215.924 213.271 213.092 210.446 209.597 210.446ZM355.752 136.844C358.496 139.003 358.969 142.985 356.808 145.726L310.504 204.507C309.254 206.09 307.401 206.917 305.529 206.917C300.406 206.917 297.257 200.869 300.562 196.676L346.866 137.9C349.029 135.154 353.007 134.685 355.752 136.844ZM254.618 87.153C257.344 89.339 261.326 88.896 263.513 86.172L273.748 73.399L283.982 86.172C286.178 88.915 290.159 89.328 292.876 87.153C295.604 84.967 296.042 80.985 293.857 78.261L281.858 63.286L293.857 48.316C296.042 45.586 295.604 41.604 292.876 39.418C290.15 37.232 286.168 37.669 283.982 40.404L273.748 53.167L263.513 40.404C261.328 37.669 257.345 37.232 254.618 39.418C251.892 41.604 251.453 45.586 253.638 48.316L265.639 63.286L253.638 78.261C251.453 80.984 251.892 84.967 254.618 87.153ZM149.624 44.36C149.624 47.852 152.458 50.688 155.952 50.688H164.796V82.216C164.796 85.708 167.629 88.544 171.122 88.544C174.617 88.544 177.448 85.708 177.448 82.216V50.688H186.292C189.786 50.688 192.621 47.852 192.621 44.36C192.621 40.857 189.787 38.032 186.292 38.032H155.95C152.458 38.032 149.624 40.857 149.624 44.36Z" fill="#08D665"/>
</svg>
